<svg width="23" height="28" viewBox="0 0 23 28" fill="none" xmlns="http://www.w3.org/2000/svg">
<path d="M0 24.7199L2.02977 20.8507C4.38004 22.4629 8.01226 23.6451 11.5377 23.6451C16.1314 23.6451 17.9475 22.2479 17.9475 19.8834C17.9475 13.7572 0.747808 19.0236 0.747808 8.16831C0.747808 3.22433 5.12785 0 12.0718 0C15.5972 0 19.6567 0.9673 22.007 2.47199L19.8704 6.34119C17.4133 4.72902 14.7426 4.19164 12.0718 4.19164C7.7986 4.19164 5.662 5.8038 5.662 7.95336C5.662 14.402 22.8617 9.13562 22.8617 19.7759C22.8617 24.7199 18.3748 27.8368 11.1103 27.8368C6.7303 27.9442 2.24343 26.547 0 24.7199Z" fill="white"/>
</svg>
