<svg width="24" height="28" viewBox="0 0 24 28" fill="none" xmlns="http://www.w3.org/2000/svg">
<path d="M23.7163 11.1777V27.7293H19.0158V24.075C17.4133 26.547 14.3152 27.9442 10.042 27.9442C3.84589 27.9442 0 24.6124 0 19.8834C0 15.4768 2.77758 11.93 10.8967 11.93H18.6953V10.9627C18.6953 6.7711 16.2382 4.40659 11.4308 4.40659C8.22592 4.40659 4.91419 5.58885 2.77758 7.30849L0.747808 3.54677C3.52539 1.28973 7.58494 0 11.965 0C19.5499 0.107478 23.7163 3.76172 23.7163 11.1777ZM18.8021 19.346V15.4768H11.2172C6.30298 15.4768 4.91419 17.4114 4.91419 19.6684C4.91419 22.3554 7.15762 24.075 10.8967 24.075C14.6357 24.1825 17.627 22.5703 18.8021 19.346Z" fill="white"/>
</svg>
